<svg xmlns="http://www.w3.org/2000/svg" width="512" height="512" viewBox="0 0 512 512" version="1.1"><path d="M 221 75.592 C 216.472 77.550, 211.389 82.456, 208.662 87.500 C 206.698 91.133, 206.469 93.288, 206.156 111 L 205.813 130.500 196.939 134.754 C 192.059 137.094, 184.499 141.437, 180.140 144.405 L 172.215 149.801 156.357 140.661 C 141.047 131.836, 140.257 131.508, 133.450 131.161 C 125.246 130.743, 119.338 132.939, 114.290 138.283 C 110.035 142.788, 84.292 187.881, 82.808 193.428 C 81.245 199.270, 82.761 207.171, 86.540 212.882 C 89.457 217.288, 92.605 219.509, 109.942 229.389 L 121.384 235.909 121.442 255.966 L 121.500 276.024 107.037 284.262 C 99.083 288.793, 90.872 294.240, 88.791 296.366 C 82.959 302.327, 80.555 312.449, 83.155 320.101 C 84.982 325.481, 110.924 370.154, 114.290 373.717 C 119.338 379.061, 125.246 381.257, 133.450 380.839 C 140.257 380.492, 141.047 380.164, 156.357 371.339 L 172.215 362.199 180.140 367.595 C 184.499 370.563, 192.059 374.906, 196.939 377.246 L 205.813 381.500 206.156 401 C 206.545 423.031, 207.177 425.313, 214.797 432.198 C 221.479 438.235, 223.215 438.500, 256 438.500 C 288.785 438.500, 290.521 438.235, 297.203 432.198 C 304.832 425.305, 305.458 423.038, 305.822 400.971 L 306.145 381.442 313.731 378.028 C 317.904 376.150, 325.495 371.821, 330.601 368.407 L 339.884 362.201 355.692 371.325 C 370.930 380.120, 371.754 380.462, 378.550 380.824 C 386.754 381.260, 392.652 379.072, 397.710 373.717 C 402.517 368.628, 427.851 323.799, 429.184 318.023 C 430.659 311.634, 429.174 304.567, 425.119 298.673 C 422.427 294.761, 415.774 290.322, 393.500 277.580 L 390.500 275.864 390.500 256 L 390.500 236.136 393.500 234.420 C 415.774 221.678, 422.427 217.239, 425.119 213.327 C 429.174 207.433, 430.659 200.366, 429.184 193.977 C 427.851 188.201, 402.517 143.372, 397.710 138.283 C 392.652 132.928, 386.754 130.740, 378.550 131.176 C 371.754 131.538, 370.930 131.880, 355.692 140.675 L 339.884 149.799 330.601 143.593 C 325.495 140.179, 317.904 135.850, 313.731 133.972 L 306.145 130.558 305.822 111.029 C 305.464 89.318, 304.873 87.045, 297.838 80.301 C 291.437 74.165, 290.299 73.996, 255.782 74.039 C 230.122 74.071, 223.871 74.350, 221 75.592 M 243 197.560 C 220.966 202.309, 202.167 221.292, 197.504 243.500 C 195.492 253.083, 195.635 261.255, 197.975 270.404 C 200.884 281.777, 205.288 289.376, 214.031 298.109 C 233.023 317.078, 260.535 321.266, 284.314 308.808 C 292.426 304.558, 304.558 292.426, 308.808 284.314 C 321.267 260.533, 317.038 232.771, 298.091 213.966 C 289.367 205.308, 281.652 200.852, 270.404 197.975 C 261.505 195.699, 252.281 195.560, 243 197.560" stroke="none" fill="#fbfbfc" fill-rule="evenodd"/><path d="M 126.500 1.441 C 62.144 11.677, 11.200 62.830, 1.455 127 C -0.684 141.084, -0.684 370.916, 1.455 385 C 8.773 433.187, 39.352 474.858, 83.500 496.804 C 93.753 501.901, 103.832 505.512, 117 508.805 L 127.500 511.431 250 511.776 C 337.133 512.022, 375.171 511.795, 381.751 510.989 C 434.467 504.530, 481.470 468.065, 501.450 418.124 C 505.759 407.354, 509.789 392.484, 510.637 384.222 C 510.992 380.769, 511.669 377.705, 512.141 377.413 C 512.613 377.121, 513 321.982, 513 254.882 C 513 173.803, 512.665 133.089, 512 133.500 C 511.415 133.861, 511 132.830, 511 131.017 C 511 121.421, 503.642 97.058, 496.384 82.620 C 488.609 67.156, 481.422 57.357, 468.033 43.967 C 450.032 25.966, 432.860 15.212, 410 7.623 C 387.232 0.064, 398.686 0.616, 259.500 0.380 C 162.332 0.215, 132.719 0.451, 126.500 1.441 M 221 75.592 C 216.472 77.550, 211.389 82.456, 208.662 87.500 C 206.698 91.133, 206.469 93.288, 206.156 111 L 205.813 130.500 196.939 134.754 C 192.059 137.094, 184.499 141.437, 180.140 144.405 L 172.215 149.801 156.357 140.661 C 141.047 131.836, 140.257 131.508, 133.450 131.161 C 125.246 130.743, 119.338 132.939, 114.290 138.283 C 110.035 142.788, 84.292 187.881, 82.808 193.428 C 81.245 199.270, 82.761 207.171, 86.540 212.882 C 89.457 217.288, 92.605 219.509, 109.942 229.389 L 121.384 235.909 121.442 255.966 L 121.500 276.024 107.037 284.262 C 99.083 288.793, 90.872 294.240, 88.791 296.366 C 82.959 302.327, 80.555 312.449, 83.155 320.101 C 84.982 325.481, 110.924 370.154, 114.290 373.717 C 119.338 379.061, 125.246 381.257, 133.450 380.839 C 140.257 380.492, 141.047 380.164, 156.357 371.339 L 172.215 362.199 180.140 367.595 C 184.499 370.563, 192.059 374.906, 196.939 377.246 L 205.813 381.500 206.156 401 C 206.545 423.031, 207.177 425.313, 214.797 432.198 C 221.479 438.235, 223.215 438.500, 256 438.500 C 288.785 438.500, 290.521 438.235, 297.203 432.198 C 304.832 425.305, 305.458 423.038, 305.822 400.971 L 306.145 381.442 313.731 378.028 C 317.904 376.150, 325.495 371.821, 330.601 368.407 L 339.884 362.201 355.692 371.325 C 370.930 380.120, 371.754 380.462, 378.550 380.824 C 386.754 381.260, 392.652 379.072, 397.710 373.717 C 402.517 368.628, 427.851 323.799, 429.184 318.023 C 430.659 311.634, 429.174 304.567, 425.119 298.673 C 422.427 294.761, 415.774 290.322, 393.500 277.580 L 390.500 275.864 390.500 256 L 390.500 236.136 393.500 234.420 C 415.774 221.678, 422.427 217.239, 425.119 213.327 C 429.174 207.433, 430.659 200.366, 429.184 193.977 C 427.851 188.201, 402.517 143.372, 397.710 138.283 C 392.652 132.928, 386.754 130.740, 378.550 131.176 C 371.754 131.538, 370.930 131.880, 355.692 140.675 L 339.884 149.799 330.601 143.593 C 325.495 140.179, 317.904 135.850, 313.731 133.972 L 306.145 130.558 305.822 111.029 C 305.464 89.318, 304.873 87.045, 297.838 80.301 C 291.437 74.165, 290.299 73.996, 255.782 74.039 C 230.122 74.071, 223.871 74.350, 221 75.592 M 0.484 256 C 0.484 323.375, 0.604 350.938, 0.750 317.250 C 0.896 283.563, 0.896 228.438, 0.750 194.750 C 0.604 161.063, 0.484 188.625, 0.484 256 M 243 197.560 C 220.966 202.309, 202.167 221.292, 197.504 243.500 C 195.492 253.083, 195.635 261.255, 197.975 270.404 C 200.884 281.777, 205.288 289.376, 214.031 298.109 C 233.023 317.078, 260.535 321.266, 284.314 308.808 C 292.426 304.558, 304.558 292.426, 308.808 284.314 C 321.267 260.533, 317.038 232.771, 298.091 213.966 C 289.367 205.308, 281.652 200.852, 270.404 197.975 C 261.505 195.699, 252.281 195.560, 243 197.560" stroke="none" fill="#2494fc" fill-rule="evenodd"/></svg>